HIERARCHY
ROOT Hip
{
  OFFSET 0.0 0.0 0.0
  CHANNELS 6 Xposition Yposition Zposition Xrotation Yrotation Zrotation
  JOINT LowerSpine
  {
    OFFSET 0.0 0.061367 -0.03653
    CHANNELS 3 Xrotation Yrotation Zrotation
    JOINT MiddleSpine
    {
      OFFSET 0.0 0.056002 0.002633
      CHANNELS 3 Xrotation Yrotation Zrotation
      JOINT Chest
      {
        OFFSET 0.0 0.069296 -0.013882
        CHANNELS 3 Xrotation Yrotation Zrotation
        JOINT Neck
        {
          OFFSET 0.0 0.156156 -0.002923
          CHANNELS 3 Xrotation Yrotation Zrotation
          JOINT Head
          {
            OFFSET 0.0 0.088183 0.023986
            CHANNELS 3 Xrotation Yrotation Zrotation
            End Site
            {
              OFFSET 1e-06 0.123215 0.003678
            }
          }
        }
        JOINT LClavicle
        {
          OFFSET 0.014189 0.150698 0.046467
          CHANNELS 3 Xrotation Yrotation Zrotation
          JOINT LShoulder
          {
            OFFSET 0.082893 0.021616 -0.034976
            CHANNELS 3 Xrotation Yrotation Zrotation
            JOINT LForearm
            {
              OFFSET 0.195645 -0.000695 -0.001695
              CHANNELS 3 Xrotation Yrotation Zrotation
              JOINT LHand
              {
                OFFSET 0.163209 0.000474 -0.000977
                CHANNELS 3 Xrotation Yrotation Zrotation
                End Site
                {
                  OFFSET 0.0 0.006864 0.0
                }
              }
            }
          }
        }
        JOINT RClavicle
        {
          OFFSET -0.014189 0.150698 0.046467
          CHANNELS 3 Xrotation Yrotation Zrotation
          JOINT RShoulder
          {
            OFFSET -0.082908 0.021619 -0.034982
            CHANNELS 3 Xrotation Yrotation Zrotation
            JOINT RForearm
            {
              OFFSET -0.195645 -0.000695 -0.001695
              CHANNELS 3 Xrotation Yrotation Zrotation
              JOINT RHand
              {
                OFFSET -0.163209 0.000474 -0.000977
                CHANNELS 3 Xrotation Yrotation Zrotation
                End Site
                {
                  OFFSET 0.0 0.006864 0.0
                }
              }
            }
          }
        }
      }
    }
  }
  JOINT RThigh
  {
    OFFSET -0.072558 0.02774 -0.005953
    CHANNELS 3 Xrotation Yrotation Zrotation
    JOINT RShin
    {
      OFFSET -0.005253 -0.285537 0.0
      CHANNELS 3 Xrotation Yrotation Zrotation
      JOINT RFoot
      {
        OFFSET 0.0 -0.28038 0.0
        CHANNELS 3 Xrotation Yrotation Zrotation
        JOINT RToe
        {
          OFFSET 0.0 -0.030816 0.064441
          CHANNELS 3 Xrotation Yrotation Zrotation
          End Site
          {
            OFFSET 0.0 0.0 0.043231
          }
        }
      }
    }
  }
  JOINT LThigh
  {
    OFFSET 0.072557 0.027741 -0.005953
    CHANNELS 3 Xrotation Yrotation Zrotation
    JOINT LShin
    {
      OFFSET 0.005253 -0.285539 0.0
      CHANNELS 3 Xrotation Yrotation Zrotation
      JOINT LFoot
      {
        OFFSET 0.0 -0.28038 0.0
        CHANNELS 3 Xrotation Yrotation Zrotation
        JOINT LToe
        {
          OFFSET 0.0 -0.030816 0.064441
          CHANNELS 3 Xrotation Yrotation Zrotation
          End Site
          {
            OFFSET 0.0 0.0 0.043231
          }
        }
      }
    }
  }
}
MOTION
Frames: 16
Frame Time: 0.03333333333333333
-0.020188 0.552346 0.005982 1.266281 -1.347292 -1.94872 0.629034 0.093141 -0.094931 -0.223125 1.82281 0.125453 -0.871285 2.822728 3.273142 -0.266097 0.145274 -0.433276 0.022881 -0.05007 -0.029144 -1.234505 -1.267744 -11.698671 17.197649 -13.592549 -54.792114 3.309067 -22.684361 0.231442 0.023267 0.056391 -0.04245 0.231955 -0.686794 0.902518 -40.913376 9.092323 28.039433 -20.273851 86.211884 -22.12257 0.004063 -0.068602 -0.003595 -0.744259 2.203262 -3.270288 0.584808 0.912919 1.438092 -3.360888 1.937157 0.68746 -0.00753 0.19627 0.072334 4.835226 -1.200873 4.153424 0.538071 0.865919 2.660951 -6.233392 3.498995 2.0337 0.015702 0.020055 0.005099 
-0.021756 0.550199 0.005351 1.263641 -1.289551 -1.941781 0.77024 0.067982 -0.165391 -0.201923 1.779948 0.155692 -0.859427 3.034842 3.494106 -0.238782 0.142691 -0.40678 0.024858 -0.042143 -0.033642 -1.188388 -1.337202 -11.382047 16.641592 -13.197712 -54.89999 2.9721 -23.100979 0.318917 0.031341 0.064446 -0.053873 0.192901 -0.607063 1.023138 -40.614769 7.952078 29.081255 -25.34572 84.283646 -17.080116 0.026396 -0.087383 -0.00118 -0.903664 2.055043 -3.110353 0.742125 0.793325 1.61069 -3.420466 1.986104 0.696032 -0.006172 0.217087 0.078486 4.537529 -1.346712 4.284693 0.792333 0.749946 2.625747 -6.185777 3.39537 1.972133 0.020366 0.018695 0.007265 
-0.023804 0.547948 0.00484 1.240438 -1.276477 -1.945077 0.906294 0.037472 -0.228359 -0.192241 1.725624 0.185279 -0.843032 3.208887 3.651145 -0.197391 0.146613 -0.38168 0.026907 -0.038007 -0.036874 -1.149165 -1.407612 -11.069241 16.11763 -12.916325 -54.986443 2.634561 -23.428497 0.445831 0.038761 0.071723 -0.063988 0.142103 -0.521436 1.159885 -40.14518 6.942686 30.174643 -27.652157 82.410507 -14.704349 0.041102 -0.100284 0.000699 -1.036429 1.899778 -2.895552 0.903437 0.6838 1.758786 -3.448742 2.034045 0.703028 -0.007696 0.234304 0.084752 4.270114 -1.459323 4.483628 1.060187 0.646453 2.57822 -6.124826 3.279459 1.912876 0.023751 0.017155 0.008796 
-0.026507 0.545342 0.00426 1.30064 -1.252612 -1.898992 1.014117 0.001693 -0.27723 -0.193672 1.683244 0.205766 -0.919413 3.311724 3.670013 -0.144003 0.158979 -0.358969 0.029448 -0.03777 -0.039787 -1.100818 -1.458151 -10.790516 15.70474 -12.87285 -54.901394 2.374348 -23.659567 0.623749 0.044884 0.076976 -0.070904 0.086548 -0.464472 1.296871 -39.474045 6.244959 31.197836 -28.020391 80.873726 -14.041769 0.053134 -0.115565 0.001625 -1.251577 1.71147 -2.675218 1.034179 0.574973 1.865529 -3.450763 2.077154 0.705127 -0.013035 0.244036 0.090845 3.930814 -1.58045 4.733445 1.398446 0.580102 2.482273 -6.054468 3.17985 1.859003 0.02699 0.015518 0.00993 
-0.02932 0.542736 0.003763 1.375487 -1.205273 -1.804015 1.097966 -0.028779 -0.312362 -0.179491 1.647953 0.221442 -0.999023 3.348661 3.633309 -0.103902 0.170655 -0.345694 0.031714 -0.036435 -0.042673 -1.062148 -1.515337 -10.5716 15.379186 -13.026288 -54.654789 2.195985 -23.755898 0.777411 0.049259 0.079449 -0.074734 0.024341 -0.402746 1.409133 -38.643307 5.765833 32.05661 -27.954229 79.62722 -13.640738 0.067934 -0.13202 0.002932 -1.428374 1.513979 -2.491727 1.110596 0.479453 1.951674 -3.464751 2.116009 0.704221 -0.016034 0.252119 0.096817 3.587011 -1.730271 4.979185 1.758525 0.524321 2.356518 -5.972906 3.090755 1.805294 0.029457 0.014722 0.012034 
-0.031828 0.540553 0.003454 1.487951 -1.198957 -1.732778 1.158382 -0.057158 -0.340868 -0.165882 1.615165 0.230595 -1.067597 3.361614 3.581286 -0.08283 0.179134 -0.338765 0.033127 -0.031128 -0.044162 -1.026613 -1.557928 -10.407856 15.155257 -13.266021 -54.333157 2.084246 -23.770515 0.898379 0.051998 0.079944 -0.076341 -0.029065 -0.336788 1.531821 -37.632801 5.459329 32.810062 -27.813004 78.694145 -13.234433 0.085162 -0.145578 0.004748 -1.596594 1.354037 -2.36482 1.144044 0.407249 2.028828 -3.47809 2.140692 0.702712 -0.015035 0.258114 0.099378 3.256069 -1.84619 5.223646 2.106764 0.509173 2.227898 -5.895961 3.002363 1.750259 0.030099 0.015672 0.015606 
-0.033962 0.53885 0.003139 1.661605 -1.206408 -1.682763 1.201593 -0.082829 -0.365157 -0.154221 1.587848 0.230141 -1.16093 3.380701 3.463212 -0.068477 0.18368 -0.328209 0.033825 -0.024241 -0.044903 -0.995147 -1.584137 -10.263874 14.987916 -13.502185 -53.957458 1.982789 -23.784006 0.981646 0.052991 0.078334 -0.076349 -0.071353 -0.29878 1.659477 -36.73835 5.334705 33.505989 -27.747698 77.769325 -12.821803 0.099758 -0.153841 0.006179 -1.836094 1.249201 -2.278399 1.204008 0.39012 2.071663 -3.503218 2.142922 0.695214 -0.013345 0.261548 0.100108 2.909417 -1.863831 5.465172 2.432806 0.561899 2.080937 -5.844659 2.931232 1.699904 0.028998 0.018069 0.019786 
-0.035792 0.537668 0.002864 1.879819 -1.173987 -1.648561 1.230526 -0.10605 -0.385319 -0.144767 1.574365 0.223537 -1.258773 3.400913 3.328226 -0.066527 0.188549 -0.320964 0.034195 -0.019037 -0.045382 -0.96538 -1.601627 -10.145052 14.881703 -13.762859 -53.579845 1.940614 -23.756245 1.032946 0.054064 0.077144 -0.076192 -0.112479 -0.278819 1.766768 -35.913376 5.336021 34.07486 -27.607527 77.050758 -12.510934 0.112216 -0.160694 0.007512 -2.094214 1.173573 -2.251885 1.276113 0.368356 2.103054 -3.529082 2.138256 0.685994 -0.011615 0.265508 0.100889 2.561774 -1.835718 5.704233 2.712699 0.655173 1.930781 -5.804563 2.872189 1.65842 0.027994 0.019987 0.023395 
-0.037374 0.53706 0.002585 2.07777 -1.127597 -1.624435 1.251565 -0.12512 -0.400427 -0.135054 1.572778 0.215901 -1.341177 3.425281 3.202075 -0.068021 0.193315 -0.318197 0.034402 -0.015705 -0.045595 -0.939193 -1.613098 -10.052282 14.827089 -14.029676 -53.247353 1.955524 -23.711235 1.071144 0.055073 0.076633 -0.075997 -0.148584 -0.269147 1.85084 -35.150936 5.41176 34.555439 -27.374256 76.598213 -12.339429 0.122523 -0.166505 0.008696 -2.321721 1.120483 -2.257598 1.337114 0.338632 2.12727 -3.55265 2.129636 0.676371 -0.009708 0.270022 0.101621 2.263048 -1.791682 5.919484 2.941506 0.755504 1.799256 -5.768711 2.82247 1.625534 0.027247 0.021257 0.026098 
-0.038655 0.536925 0.002408 2.244578 -1.074441 -1.609672 1.26537 -0.138612 -0.411184 -0.126607 1.57962 0.205798 -1.396858 3.453015 3.093913 -0.070517 0.19684 -0.317985 0.034281 -0.013222 -0.045594 -0.91743 -1.615118 -9.994836 14.795286 -14.258093 -52.974087 1.990479 -23.644375 1.084068 0.055839 0.076367 -0.075646 -0.175282 -0.270864 1.912969 -34.587303 5.51019 34.917789 -27.133619 76.389755 -12.281199 0.130653 -0.170889 0.00966 -2.505819 1.091127 -2.289447 1.380975 0.309493 2.143914 -3.574123 2.117787 0.668119 -0.008156 0.274175 0.10221 2.038961 -1.736308 6.085237 3.101882 0.852354 1.7073 -5.747981 2.790009 1.603304 0.026339 0.022676 0.028228 
-0.039663 0.53723 0.002301 2.380308 -1.007142 -1.60794 1.274225 -0.148166 -0.419201 -0.123207 1.591141 0.197211 -1.423052 3.490867 3.010282 -0.069889 0.200324 -0.318428 0.033888 -0.012097 -0.045533 -0.899367 -1.608868 -9.968987 14.774789 -14.437048 -52.772961 2.037461 -23.55971 1.079533 0.056432 0.07642 -0.075292 -0.191665 -0.285567 1.950792 -34.261478 5.618527 35.150787 -26.948067 76.368584 -12.284033 0.135806 -0.173513 0.010355 -2.654584 1.08021 -2.344232 1.436742 0.276593 2.159173 -3.590285 2.101967 0.659541 -0.007383 0.277145 0.102675 1.88054 -1.663323 6.208042 3.198841 0.941343 1.656904 -5.741399 2.772203 1.590446 0.025681 0.02375 0.029688 
-0.040318 0.537985 0.002261 2.471457 -0.934372 -1.624051 1.276909 -0.154359 -0.423895 -0.125055 1.60561 0.191964 -1.425243 3.526229 2.947683 -0.068297 0.203234 -0.319035 0.033488 -0.012535 -0.045521 -0.884853 -1.597146 -9.973413 14.77562 -14.572912 -52.645546 2.106376 -23.456944 1.055501 0.057089 0.077304 -0.075364 -0.196742 -0.311715 1.962813 -34.154186 5.728371 35.235893 -26.819912 76.451752 -12.344234 0.137784 -0.175163 0.010666 -2.748739 1.078408 -2.415045 1.496364 0.238699 2.170846 -3.590541 2.084344 0.651815 -0.00767 0.279701 0.103357 1.800075 -1.578795 6.280157 3.229924 1.018756 1.651029 -5.747016 2.765441 1.586175 0.025537 0.02411 0.030332 
-0.040641 0.53905 0.002332 2.513465 -0.88471 -1.641357 1.268246 -0.154474 -0.422584 -0.130147 1.621855 0.185321 -1.410717 3.541885 2.913072 -0.069765 0.203674 -0.321319 0.032872 -0.012934 -0.045145 -0.878458 -1.580818 -10.008521 14.818 -14.611122 -52.611179 2.164654 -23.384666 1.011964 0.057179 0.07791 -0.075177 -0.186529 -0.344288 1.947383 -34.301102 5.829123 35.153229 -26.698013 76.788223 -12.539876 0.13778 -0.17479 0.010728 -2.777261 1.100022 -2.493586 1.504391 0.21868 2.16897 -3.591018 2.069515 0.648555 -0.007667 0.280615 0.1033 1.80861 -1.500582 6.28833 3.196479 1.094938 1.682538 -5.764629 2.777372 1.59134 0.02503 0.025273 0.030651 
-0.040641 0.540373 0.002543 2.497321 -0.867686 -1.663296 1.245298 -0.147419 -0.41374 -0.137928 1.638077 0.176482 -1.378432 3.518926 2.906513 -0.076068 0.20173 -0.327166 0.032051 -0.013439 -0.044381 -0.882198 -1.563637 -10.072533 14.920786 -14.546184 -52.668781 2.220039 -23.353018 0.955941 0.056601 0.078169 -0.074661 -0.163244 -0.382011 1.904914 -34.650864 5.917859 34.891663 -26.409468 77.509598 -13.018226 0.135332 -0.171886 0.010479 -2.724846 1.140769 -2.581178 1.444018 0.215956 2.153021 -3.589014 2.058477 0.650455 -0.00716 0.279645 0.102327 1.916955 -1.429425 6.243507 3.091196 1.174722 1.743379 -5.789412 2.808239 1.607627 0.024324 0.027331 0.030579 
-0.040236 0.541932 0.002871 2.44127 -0.867829 -1.711701 1.206746 -0.130543 -0.397849 -0.153863 1.655504 0.16281 -1.331004 3.415928 2.923692 -0.090855 0.198723 -0.338197 0.031047 -0.015574 -0.043283 -0.897997 -1.544797 -10.167322 15.107212 -14.432998 -52.799725 2.32492 -23.337891 0.888325 0.055508 0.078526 -0.073693 -0.137851 -0.430259 1.836103 -35.120407 6.028234 34.425369 -25.812252 78.681572 -13.880958 0.128887 -0.166276 0.009784 -2.597266 1.155001 -2.700705 1.332815 0.187469 2.143805 -3.564328 2.049826 0.657593 -0.00562 0.278222 0.100814 2.101165 -1.349566 6.17788 2.881932 1.256307 1.827602 -5.816856 2.858364 1.638202 0.023768 0.029607 0.02956 
-0.039301 0.543797 0.003404 2.34554 -0.888677 -1.796757 1.150346 -0.103482 -0.371826 -0.178036 1.667551 0.145631 -1.280318 3.220722 2.943518 -0.114487 0.196421 -0.356854 0.029837 -0.020195 -0.041672 -0.925979 -1.525976 -10.288443 15.382172 -14.277865 -52.986073 2.49988 -23.345427 0.808752 0.053926 0.079 -0.072171 -0.114764 -0.491627 1.744436 -35.590797 6.192022 33.742359 -24.612347 80.239281 -15.325239 0.117552 -0.157323 0.008692 -2.394347 1.130635 -2.857874 1.210743 0.134332 2.13975 -3.507251 2.036798 0.665357 -0.002345 0.27668 0.098643 2.373057 -1.263013 6.096398 2.575821 1.345411 1.913745 -5.839242 2.920452 1.682482 0.023722 0.031139 0.027354 
